<?xml version="1.0" standalone="no"?>
<!DOCTYPE svg PUBLIC "-//W3C//DTD SVG 20010904//EN"
 "http://www.w3.org/TR/2001/REC-SVG-20010904/DTD/svg10.dtd">
<svg version="1.0" xmlns="http://www.w3.org/2000/svg"
 width="960.000000pt" height="1280.000000pt" viewBox="0 0 960.000000 1280.000000"
 preserveAspectRatio="xMidYMid meet">
<g transform="translate(0.000000,1280.000000) scale(0.100000,-0.100000)"
fill="#CC0000" stroke="none">
<path d="M4652 10884 c-35 -13 -80 -33 -100 -45 -50 -30 -4145 -4122 -4182
-4180 -103 -158 -105 -343 -7 -511 33 -57 4112 -4138 4182 -4184 79 -53 154
-74 259 -74 95 0 138 11 229 56 42 21 441 415 2124 2097 2191 2192 2100 2097
2139 2226 36 119 8 288 -65 394 -18 27 -956 972 -2085 2101 -2002 2001 -2055
2053 -2127 2088 -103 50 -134 58 -225 57 -57 -1 -97 -7 -142 -25z"/>
</g>
</svg>
